<svg width="1000" height="488" viewBox="0 0 1000 488" fill="none" xmlns="http://www.w3.org/2000/svg">
<path d="M264.7 354.2C268.7 354.2 272 355.6 274.8 358.4C277.6 361.2 279 364.6 279 368.5V418.1H228.3C224.3 418.1 221 416.7 218.2 413.9C215.4 411.1 214 407.7 214 403.8V380.2H267.1V368.5C267.1 367.8 266.9 367.3 266.4 366.8C265.9 366.3 265.4 366.1 264.7 366.1H214V354.2H264.7ZM267.1 406.2V392.1H225.9V403.8C225.9 404.5 226.1 405 226.6 405.5C227.1 406 227.6 406.2 228.3 406.2H267.1ZM381.8 354.2H394.5L370.5 418.1H360.8L339.3 370.6L319 418.1L318.8 418L318.9 418.1H309.3L284.2 354.2H296.8L314.1 396.6L332.5 354.2H346.1L365.6 396.6L381.8 354.2ZM449 354.2C453 354.2 456.3 355.6 459.1 358.4C461.9 361.2 463.3 364.6 463.3 368.5V392.1H410.2V403.8C410.2 404.5 410.4 405 410.9 405.5C411.4 406 411.9 406.2 412.6 406.2H463.3V418.1H412.6C408.6 418.1 405.3 416.7 402.5 413.9C399.7 411.1 398.3 407.7 398.3 403.8V368.5C398.3 364.5 399.7 361.2 402.5 358.4C405.3 355.6 408.7 354.2 412.6 354.2H449ZM410.2 380.2H451.4V368.5C451.4 367.8 451.2 367.3 450.7 366.8C450.2 366.3 449.7 366.1 449 366.1H412.6C411.9 366.1 411.4 366.3 410.9 366.8C410.4 367.3 410.2 367.8 410.2 368.5V380.2ZM539.2 368.6V371H527.3V368.6C527.3 367.9 527.1 367.4 526.6 366.9C526.1 366.4 525.6 366.2 524.9 366.2H488.5C487.8 366.2 487.3 366.4 486.8 366.9C486.3 367.4 486.1 367.9 486.1 368.6V377.9C486.1 378.6 486.3 379.1 486.8 379.6C487.3 380.1 487.8 380.3 488.5 380.3H524.9C528.9 380.3 532.2 381.7 535 384.5C537.8 387.3 539.2 390.7 539.2 394.6V403.9C539.2 407.9 537.8 411.2 535 414C532.2 416.8 528.8 418.2 524.9 418.2H488.5C484.5 418.2 481.2 416.8 478.4 414C475.6 411.2 474.2 407.8 474.2 403.9V401.5H486.1V403.9C486.1 404.6 486.3 405.1 486.8 405.6C487.3 406.1 487.8 406.3 488.5 406.3H524.9C525.6 406.3 526.1 406.1 526.6 405.6C527.1 405.1 527.3 404.6 527.3 403.9V394.6C527.3 393.9 527.1 393.4 526.6 392.9C526.1 392.4 525.6 392.2 524.9 392.2H488.5C484.5 392.2 481.2 390.8 478.4 388C475.6 385.2 474.2 381.8 474.2 377.9V368.6C474.2 364.6 475.6 361.3 478.4 358.5C481.2 355.7 484.6 354.3 488.5 354.3H524.9C528.9 354.3 532.2 355.7 535 358.5C537.8 361.2 539.2 364.6 539.2 368.6ZM564.4 354.2H600.8C604.8 354.2 608.1 355.6 610.9 358.4C613.7 361.2 615.1 364.6 615.1 368.5V403.8C615.1 407.8 613.7 411.1 610.9 413.9C608.1 416.7 604.7 418.1 600.8 418.1H564.4C560.4 418.1 557.1 416.7 554.3 413.9C551.5 411.1 550.1 407.7 550.1 403.8V368.5C550.1 364.5 551.5 361.2 554.3 358.4C557.1 355.6 560.5 354.2 564.4 354.2ZM600.8 366.1H564.4C563.7 366.1 563.2 366.3 562.7 366.8C562.2 367.3 562 367.8 562 368.5V403.8C562 404.5 562.2 405 562.7 405.5C563.2 406 563.7 406.2 564.4 406.2H600.8C601.5 406.2 602 406 602.5 405.5C603 405 603.2 404.5 603.2 403.8V368.5C603.2 367.8 603 367.3 602.5 366.8C602 366.4 601.5 366.1 600.8 366.1ZM708.3 354.2C712.3 354.2 715.6 355.6 718.4 358.4C721.2 361.2 722.6 364.6 722.6 368.5V418.1H710.8V368.5C710.8 367.8 710.6 367.3 710.1 366.8C709.6 366.3 709 366.1 708.3 366.1H683.1C682.4 366.1 681.9 366.3 681.4 366.8C680.9 367.3 680.7 367.8 680.7 368.5V418.1H668.8V368.5C668.8 367.8 668.6 367.3 668.1 366.8C667.6 366.3 667.1 366.1 666.4 366.1H641.1C640.4 366.1 639.9 366.3 639.4 366.8C638.9 367.3 638.7 367.8 638.7 368.5V418.1H626.8V354.2H708.3ZM784.8 354.2C788.8 354.2 792.1 355.6 794.9 358.4C797.7 361.2 799.1 364.6 799.1 368.5V392.1H746V403.8C746 404.5 746.2 405 746.7 405.5C747.2 406 747.7 406.2 748.4 406.2H799.1V418.1H748.4C744.4 418.1 741.1 416.7 738.3 413.9C735.5 411.1 734.1 407.7 734.1 403.8V368.5C734.1 364.5 735.5 361.2 738.3 358.4C741.1 355.6 744.5 354.2 748.4 354.2H784.8ZM746 380.2H787.2V368.5C787.2 367.8 787 367.3 786.5 366.8C786 366.3 785.5 366.1 784.8 366.1H748.4C747.7 366.1 747.2 366.3 746.7 366.8C746.2 367.3 746 367.8 746 368.5V380.2Z" fill="#494368"/>
<path d="M799 152.1L649 14.5004L627.9 37.5004L752.9 152.1H260.2L385.2 37.4004L364.1 14.4004L214.1 152.1H214V242.8C214 283.8 253.5 317.2 302 317.2H394.5C443 317.2 482.5 283.8 482.5 242.8V183.2H530.5V242.8C530.5 283.8 570 317.2 618.5 317.2H711C759.5 317.2 799 283.8 799 242.8V152.1Z" fill="#58841F"/>
<path d="M799 152.1L649 14.5004L627.9 37.5004L752.9 152.1H260.2L385.2 37.4004L364.1 14.4004L214.1 152.1H214V242.8C214 283.8 253.5 317.2 302 317.2H394.5C443 317.2 482.5 283.8 482.5 242.8V183.2H530.5V242.8C530.5 283.8 570 317.2 618.5 317.2H711C759.5 317.2 799 283.8 799 242.8V152.1Z" fill="url(#paint0_linear)"/>
<path d="M226.917 464.833C226.917 467.339 226.015 469.493 224.213 471.296C222.41 473.099 220.256 474 217.75 474H213.167C210.661 474 208.507 473.099 206.704 471.296C204.901 469.493 204 467.339 204 464.833V451.083C204 448.578 204.901 446.424 206.704 444.621C208.507 442.818 210.661 441.917 213.167 441.917H217.75C220.256 441.917 222.41 442.818 224.213 444.621C226.015 446.424 226.917 448.578 226.917 451.083H222.333C222.333 449.831 221.875 448.761 220.958 447.875C220.072 446.958 219.003 446.5 217.75 446.5H213.167C211.914 446.5 210.829 446.958 209.913 447.875C209.026 448.761 208.583 449.831 208.583 451.083V464.833C208.583 466.086 209.026 467.171 209.913 468.087C210.829 468.974 211.914 469.417 213.167 469.417H217.75C219.003 469.417 220.072 468.974 220.958 468.087C221.875 467.171 222.333 466.086 222.333 464.833H226.917ZM249.833 474V464.833C249.833 463.581 249.375 462.511 248.458 461.625C247.572 460.708 246.503 460.25 245.25 460.25H236.083V474H231.5V441.917H245.25C247.786 441.917 249.94 442.818 251.713 444.621C253.515 446.393 254.417 448.547 254.417 451.083C254.417 453.833 253.118 456.125 250.521 457.958C253.118 459.792 254.417 462.083 254.417 464.833V474H249.833ZM236.083 455.667H245.25C246.503 455.667 247.572 455.224 248.458 454.337C249.375 453.421 249.833 452.336 249.833 451.083C249.833 449.831 249.375 448.761 248.458 447.875C247.572 446.958 246.503 446.5 245.25 446.5H236.083V455.667ZM281.917 464.833C281.917 467.339 281.015 469.493 279.213 471.296C277.41 473.099 275.256 474 272.75 474H268.167C265.661 474 263.507 473.099 261.704 471.296C259.901 469.493 259 467.339 259 464.833V451.083C259 448.578 259.901 446.424 261.704 444.621C263.507 442.818 265.661 441.917 268.167 441.917H272.75C275.256 441.917 277.41 442.818 279.213 444.621C281.015 446.424 281.917 448.578 281.917 451.083V464.833ZM277.333 464.833V451.083C277.333 449.831 276.875 448.761 275.958 447.875C275.072 446.958 274.003 446.5 272.75 446.5H268.167C266.914 446.5 265.829 446.958 264.913 447.875C264.026 448.761 263.583 449.831 263.583 451.083V464.833C263.583 466.086 264.026 467.171 264.913 468.087C265.829 468.974 266.914 469.417 268.167 469.417H272.75C274.003 469.417 275.072 468.974 275.958 468.087C276.875 467.171 277.333 466.086 277.333 464.833ZM309.417 451.083C309.417 453.589 308.515 455.743 306.713 457.546C304.91 459.349 302.756 460.25 300.25 460.25H291.083V474H286.5V441.917H300.25C302.786 441.917 304.94 442.818 306.713 444.621C308.515 446.393 309.417 448.547 309.417 451.083ZM304.833 451.083C304.833 449.831 304.375 448.761 303.458 447.875C302.572 446.958 301.503 446.5 300.25 446.5H291.083V455.667H300.25C301.503 455.667 302.572 455.224 303.458 454.337C304.375 453.421 304.833 452.336 304.833 451.083ZM364.417 464.833C364.417 467.339 363.515 469.493 361.713 471.296C359.91 473.099 357.756 474 355.25 474H350.667C348.161 474 346.007 473.114 344.204 471.342C342.401 469.539 341.5 467.369 341.5 464.833H346.083C346.083 466.086 346.526 467.171 347.413 468.087C348.329 468.974 349.414 469.417 350.667 469.417H355.25C356.503 469.417 357.572 468.974 358.458 468.087C359.375 467.171 359.833 466.086 359.833 464.833C359.833 463.581 359.375 462.511 358.458 461.625C357.572 460.708 356.503 460.25 355.25 460.25H350.667C348.161 460.25 346.007 459.349 344.204 457.546C342.401 455.743 341.5 453.589 341.5 451.083C341.5 448.578 342.401 446.424 344.204 444.621C346.007 442.818 348.161 441.917 350.667 441.917H355.25C357.756 441.917 359.91 442.818 361.713 444.621C363.515 446.424 364.417 448.578 364.417 451.083H359.833C359.833 449.831 359.375 448.761 358.458 447.875C357.572 446.958 356.503 446.5 355.25 446.5H350.667C349.414 446.5 348.329 446.958 347.413 447.875C346.526 448.761 346.083 449.831 346.083 451.083C346.083 452.336 346.526 453.421 347.413 454.337C348.329 455.224 349.414 455.667 350.667 455.667H355.25C357.756 455.667 359.91 456.568 361.713 458.371C363.515 460.174 364.417 462.328 364.417 464.833ZM391.917 474H369V469.417H378.167V446.5H369V441.917H391.917V446.5H382.75V469.417H391.917V474ZM419.417 474H414.833V449.938L410.25 454.521V460.25H405.667V454.521L401.083 449.938V474H396.5V441.917H399.938L407.958 449.938L415.979 441.917H419.417V474ZM446.917 464.833C446.917 467.369 446.015 469.539 444.213 471.342C442.41 473.114 440.256 474 437.75 474H433.167C430.661 474 428.507 473.114 426.704 471.342C424.901 469.539 424 467.369 424 464.833V441.917H428.583V464.833C428.583 466.086 429.026 467.171 429.913 468.087C430.829 468.974 431.914 469.417 433.167 469.417H437.75C439.003 469.417 440.072 468.974 440.958 468.087C441.875 467.171 442.333 466.086 442.333 464.833V441.917H446.917V464.833ZM474.417 474H451.5V441.917H456.083V469.417H474.417V474ZM483.583 464.833V474H479V459.104L487.617 441.917H493.346L501.917 459.104V474H497.333V464.833H483.583ZM490.458 446.5L483.583 460.25H497.333L490.458 446.5ZM529.417 446.5H520.25V474H515.667V446.5H506.5V441.917H529.417V446.5ZM556.917 474H534V469.417H543.167V446.5H534V441.917H556.917V446.5H547.75V469.417H556.917V474ZM584.417 464.833C584.417 467.339 583.515 469.493 581.713 471.296C579.91 473.099 577.756 474 575.25 474H570.667C568.161 474 566.007 473.099 564.204 471.296C562.401 469.493 561.5 467.339 561.5 464.833V451.083C561.5 448.578 562.401 446.424 564.204 444.621C566.007 442.818 568.161 441.917 570.667 441.917H575.25C577.756 441.917 579.91 442.818 581.713 444.621C583.515 446.424 584.417 448.578 584.417 451.083V464.833ZM579.833 464.833V451.083C579.833 449.831 579.375 448.761 578.458 447.875C577.572 446.958 576.503 446.5 575.25 446.5H570.667C569.414 446.5 568.329 446.958 567.413 447.875C566.526 448.761 566.083 449.831 566.083 451.083V464.833C566.083 466.086 566.526 467.171 567.413 468.087C568.329 468.974 569.414 469.417 570.667 469.417H575.25C576.503 469.417 577.572 468.974 578.458 468.087C579.375 467.171 579.833 466.086 579.833 464.833ZM611.917 474H607.333V463.412L593.583 449.662V474H589V441.917H592.163L607.333 457.087V441.917H611.917V474ZM666.917 474H662.333V449.938L657.75 454.521V460.25H653.167V454.521L648.583 449.938V474H644V441.917H647.438L655.458 449.938L663.479 441.917H666.917V474ZM694.417 464.833C694.417 467.339 693.515 469.493 691.713 471.296C689.91 473.099 687.756 474 685.25 474H680.667C678.161 474 676.007 473.099 674.204 471.296C672.401 469.493 671.5 467.339 671.5 464.833V451.083C671.5 448.578 672.401 446.424 674.204 444.621C676.007 442.818 678.161 441.917 680.667 441.917H685.25C687.756 441.917 689.91 442.818 691.713 444.621C693.515 446.424 694.417 448.578 694.417 451.083V464.833ZM689.833 464.833V451.083C689.833 449.831 689.375 448.761 688.458 447.875C687.572 446.958 686.503 446.5 685.25 446.5H680.667C679.414 446.5 678.329 446.958 677.413 447.875C676.526 448.761 676.083 449.831 676.083 451.083V464.833C676.083 466.086 676.526 467.171 677.413 468.087C678.329 468.974 679.414 469.417 680.667 469.417H685.25C686.503 469.417 687.572 468.974 688.458 468.087C689.375 467.171 689.833 466.086 689.833 464.833ZM721.917 464.833C721.917 467.339 721.015 469.493 719.213 471.296C717.41 473.099 715.256 474 712.75 474H699V441.917H712.75C715.256 441.917 717.41 442.818 719.213 444.621C721.015 446.424 721.917 448.578 721.917 451.083V464.833ZM717.333 464.833V451.083C717.333 449.831 716.875 448.761 715.958 447.875C715.072 446.958 714.003 446.5 712.75 446.5H703.583V469.417H712.75C714.003 469.417 715.072 468.974 715.958 468.087C716.875 467.171 717.333 466.086 717.333 464.833ZM749.417 474H726.5V441.917H749.417V446.5H731.083V455.667H744.833V460.25H731.083V469.417H749.417V474ZM776.917 474H754V441.917H758.583V469.417H776.917V474ZM804.417 464.833C804.417 467.339 803.515 469.493 801.713 471.296C799.91 473.099 797.756 474 795.25 474H790.667C788.161 474 786.007 473.114 784.204 471.342C782.401 469.539 781.5 467.369 781.5 464.833H786.083C786.083 466.086 786.526 467.171 787.413 468.087C788.329 468.974 789.414 469.417 790.667 469.417H795.25C796.503 469.417 797.572 468.974 798.458 468.087C799.375 467.171 799.833 466.086 799.833 464.833C799.833 463.581 799.375 462.511 798.458 461.625C797.572 460.708 796.503 460.25 795.25 460.25H790.667C788.161 460.25 786.007 459.349 784.204 457.546C782.401 455.743 781.5 453.589 781.5 451.083C781.5 448.578 782.401 446.424 784.204 444.621C786.007 442.818 788.161 441.917 790.667 441.917H795.25C797.756 441.917 799.91 442.818 801.713 444.621C803.515 446.424 804.417 448.578 804.417 451.083H799.833C799.833 449.831 799.375 448.761 798.458 447.875C797.572 446.958 796.503 446.5 795.25 446.5H790.667C789.414 446.5 788.329 446.958 787.413 447.875C786.526 448.761 786.083 449.831 786.083 451.083C786.083 452.336 786.526 453.421 787.413 454.337C788.329 455.224 789.414 455.667 790.667 455.667H795.25C797.756 455.667 799.91 456.568 801.713 458.371C803.515 460.174 804.417 462.328 804.417 464.833Z" fill="#494368"/>
<defs>
<linearGradient id="paint0_linear" x1="506.5" y1="14.4004" x2="506.5" y2="317.2" gradientUnits="userSpaceOnUse">
<stop stop-color="#00CF91"/>
<stop offset="1" stop-color="white" stop-opacity="0"/>
</linearGradient>
</defs>
</svg>
